Coordinates
version=1
nRows=24
nColumns=24
inDegrees=yes

Units are S.I. units (second, meters, Newtons, ...)
Angles are in degrees.

endheader
time	pelvis_tilt	pelvis_list	pelvis_rotation	pelvis_tx	pelvis_ty	pelvis_tz	hip_flexion_r	hip_adduction_r	hip_rotation_r	knee_angle_r	ankle_angle_r	subtalar_angle_r	mtp_angle_r	hip_flexion_l	hip_adduction_l	hip_rotation_l	knee_angle_l	ankle_angle_l	subtalar_angle_l	mtp_angle_l	lumbar_extension	lumbar_bending	lumbar_rotation
      3.90500000	     -8.68572721	      8.34968013	      0.88773413	     -0.70565729	     -0.01678282	      0.68304324	     40.81023414	    -11.43589258	     -1.73142429	    -61.68274376	    -15.46619857	    -17.75270004	     21.66307211	      4.44279329	     12.93341218	     16.13437773	    -14.87737188	     16.31796057	    -14.59303989	    -38.80977063	      7.86978819	    -10.06101648	     -6.51483421
      3.91000000	     -8.55354928	      8.27053345	      0.99048747	     -0.69873634	     -0.01688012	      0.68282227	     41.05951261	    -11.30246337	     -1.70943297	    -60.49048744	    -15.02118714	    -17.26369341	     21.71315124	      3.69829748	     12.78202825	     16.02601708	    -14.58964173	     16.47943823	    -14.15019737	    -38.51853759	      7.62354820	     -9.93494522	     -6.84451820
      3.91500000	     -8.45598201	      8.18407053	      1.06013767	     -0.69177658	     -0.01706441	      0.68261888	     41.31772062	    -11.13923665	     -1.64919622	    -59.23216757	    -14.61209770	    -16.74774233	     21.78015689	      2.99423563	     12.61813336	     15.88685737	    -14.29956041	     16.62177845	    -13.73533082	    -38.19936540	      7.43106234	     -9.78537404	     -7.11263472
      3.92000000	     -8.34383971	      8.12364140	      1.13842939	     -0.68484323	     -0.01731787	      0.68241887	     41.53382071	    -11.01081561	     -1.57079099	    -57.92660842	    -14.17869231	    -16.17423163	     21.88031934	      2.28634190	     12.47569665	     15.70987047	    -14.02661181	     16.78129028	    -13.25215035	    -37.80566431	      7.21590340	     -9.66424393	     -7.39425020
      3.92500000	     -8.20318208	      8.07881040	      1.21020293	     -0.67798506	     -0.01759877	      0.68228325	     41.68208863	    -10.87804200	     -1.44530184	    -56.55301405	    -13.70820809	    -15.62580263	     21.96511133	      1.58198266	     12.34047449	     15.48360768	    -13.80869428	     16.89414346	    -12.67395499	    -37.20193526	      6.95258258	     -9.56373742	     -7.67088349
      3.93000000	     -8.11912063	      7.99366400	      1.28597776	     -0.67107055	     -0.01792172	      0.68207626	     41.84073613	    -10.72141136	     -1.33266142	    -55.10233869	    -13.29303719	    -15.01438957	     22.03780992	      0.95195965	     12.16725502	     15.17793302	    -13.60186440	     16.93017914	    -12.12785250	    -36.48416780	      6.76248211	     -9.40950158	     -7.97945408
      3.93500000	     -8.13169228	      7.84564666	      1.36231186	     -0.66408830	     -0.01842085	      0.68196199	     42.05110791	    -10.48568905	     -1.23703725	    -53.59357735	    -12.86846693	    -14.52276207	     21.79215584	      0.45480605	     11.90379188	     14.73199194	    -13.42311665	     16.28275462	    -11.49434374	    -33.11827337	      6.69417082	     -9.19188963	     -8.21660800
      3.94000000	     -8.10029455	      7.80536776	      1.42490373	     -0.65715374	     -0.01891883	      0.68170982	     42.20260972	    -10.36751374	     -1.04226010	    -52.03400936	    -12.43903355	    -13.93264670	     21.97823070	     -0.12113744	     11.78745857	     14.60375351	    -13.23960242	     16.44300554	    -10.99157536	    -32.96203160	      6.56759244	     -9.06552187	     -8.44798617
      3.94500000	     -8.07212960	      7.72416125	      1.49972143	     -0.65019023	     -0.01942411	      0.68145960	     42.29991657	    -10.22645762	     -0.89061576	    -50.40478261	    -12.03140665	    -13.42314178	     22.01829048	     -0.67056407	     11.62124110	     14.44317503	    -13.10362286	     16.61909372	    -10.38661594	    -32.68554457	      6.44523511	     -8.89777889	     -8.70229679
      3.95000000	     -8.05297381	      7.62671808	      1.57309051	     -0.64320931	     -0.01996540	      0.68121094	     42.36323580	    -10.07021855	     -0.73329407	    -48.72346799	    -11.62800785	    -12.96970418	     21.92541657	     -1.19214510	     11.43414562	     14.24353088	    -12.99865537	     16.77028878	     -9.72836321	    -32.26166876	      6.33443956	     -8.70633655	     -8.95483746
      3.95500000	     -8.03768940	      7.50637019	      1.64192359	     -0.63623235	     -0.02051721	      0.68096137	     42.39262836	     -9.88820233	     -0.55580916	    -46.99911268	    -11.26783958	    -12.55935898	     21.65228812	     -1.68692260	     11.21664897	     13.98277960	    -12.92524079	     16.86511310	     -8.99538025	    -31.56442978	      6.22549845	     -8.48352963	     -9.22561415
      3.96000000	     -8.05000721	      7.31154200	      1.62011213	     -0.62907973	     -0.02112431	      0.68095513	     42.40361862	     -9.55675082	     -0.37257035	    -45.22750848	    -10.90185472	    -12.38264298	     20.82442706	     -2.13971076	     10.89515500	     13.47107239	    -12.83494208	     16.59375141	     -8.21667238	    -29.50694332	      6.18788496	     -8.18397045	     -9.34399015
      3.96500000	     -8.15523606	      7.28176845	      1.81914289	     -0.62209535	     -0.02188976	      0.68044449	     42.49836858	     -9.57838143	     -0.21403590	    -43.46168423	    -10.46980279	    -11.88153332	     20.89420538	     -2.49394864	     10.79764289	     13.44172493	    -12.81214884	     16.60218350	     -7.64196764	    -28.92553103	      6.19396043	     -8.06641867	     -9.70961670
      3.97000000	     -8.18748494	      7.06898134	      1.79064147	     -0.61483765	     -0.02255100	      0.68042175	     42.45204721	     -9.22892980	      0.01787372	    -41.61816330	    -10.17505601	    -11.83778684	     20.19145957	     -2.90828900	     10.45585730	     12.90019933	    -12.75728931	     16.39274357	     -6.81741742	    -27.07850383	      6.19217615	     -7.73231175	     -9.78999062
      3.97500000	     -8.35799950	      7.00218540	      2.00976618	     -0.60762696	     -0.02338745	      0.67980710	     42.53383138	     -9.25132714	      0.14039055	    -39.81227597	     -9.75022325	    -11.36413718	     20.23307658	     -3.19931941	     10.32489691	     12.90195895	    -12.73812635	     16.41767670	     -6.30307600	    -26.76315295	      6.30261085	     -7.55917636	    -10.12792168
      3.98000000	     -8.35115488	      6.78368248	      2.03001459	     -0.60037464	     -0.02404184	      0.67978788	     42.37681726	     -8.92183915	      0.42680015	    -37.95760325	     -9.46243191	    -11.33397377	     19.48003376	     -3.60762743	      9.96397283	     12.31808649	    -12.77668829	     16.27132278	     -5.28693301	    -24.90240031	      6.23819589	     -7.23110370	    -10.27335055
      3.98500000	     -8.49340116	      6.66051725	      2.24087431	     -0.59308762	     -0.02490526	      0.67935973	     42.37155513	     -8.86171250	      0.61584815	    -36.18945935	     -8.99104023	    -10.85115720	     19.08735832	     -3.85914431	      9.72402512	     11.85501655	    -12.76912290	     15.17190800	     -4.60375375	    -20.53436557	      6.32636818	     -7.01531758	    -10.61625595
      3.99000000	     -8.60556830	      6.50131221	      2.47314131	     -0.58572869	     -0.02566921	      0.67885582	     42.28044395	     -8.78774885	      0.78436452	    -34.38430916	     -8.74068599	    -10.60311905	     19.08309377	     -4.14987051	      9.47042975	     11.73171777	    -12.86958188	     15.29469809	     -3.83692513	    -20.25190281	      6.38605132	     -6.75314094	    -10.96732967
      3.99500000	     -8.67733477	      6.31132786	      2.66584617	     -0.57827078	     -0.02641369	      0.67843535	     42.12282297	     -8.65156061	      1.02239734	    -32.62300461	     -8.46264175	    -10.28664180	     18.95083497	     -4.46676838	      9.17180577	     11.47960188	    -12.99022959	     15.35638691	     -2.97505578	    -19.65961029	      6.41838563	     -6.45168139	    -11.26008969
      4.00000000	     -8.74344803	      6.09145564	      2.88903100	     -0.57072877	     -0.02715115	      0.67799519	     41.92963825	     -8.51038680	      1.25963068	    -30.91881429	     -8.17564670	     -9.90225378	     18.78473928	     -4.77283882	      8.83443818	     11.21549036	    -13.13641668	     15.29767473	     -2.09604991	    -18.67502597	      6.45362988	     -6.12122576	    -11.57576519
      4.00500000	     -8.86721842	      5.83368081	      3.03725742	     -0.56296004	     -0.02800748	      0.67778430	     41.78922964	     -8.25733916	      1.62188320	    -29.30728880	     -7.83638915	     -9.51288256	     18.33097583	     -5.03579039	      8.42038481	     10.62892079	    -13.09991362	     13.80608671	     -1.42652905	    -13.15023257	      6.59702410	     -5.75311595	    -11.76313945
      4.01000000	     -8.95635101	      5.59829144	      3.32725885	     -0.55524458	     -0.02876216	      0.67721878	     41.57973574	     -8.16383968	      1.85087152	    -27.74969960	     -7.63645239	     -9.06672777	     18.50532728	     -5.30364245	      8.07781464	     10.55631983	    -13.30341103	     13.84674731	     -0.65377660	    -12.80697234	      6.67657079	     -5.40901134	    -12.11559660
      4.01500000	     -9.01844133	      5.32852954	      3.60578659	     -0.54735453	     -0.02949312	      0.67667693	     41.32275315	     -8.03546217	      2.07524855	    -26.29441297	     -7.39272505	     -8.56711592	     18.64507490	     -5.58952592	      7.69052254	     10.38063036	    -13.51481730	     13.79650817	      0.11742991	    -12.26402828	      6.75510641	     -5.02237278	    -12.46665611
      4.02000000	     -9.07487027	      4.98938993	      3.82178232	     -0.53932306	     -0.03022833	      0.67637353	     41.04854010	     -7.77712867	      2.38843586	    -24.93770606	     -7.27133324	     -8.20578880	     18.71207979	     -5.88349053	      7.17970403	      9.92956694	    -13.57760462	     12.64585188	      0.84518660	     -7.98453748	      6.85618729	     -4.56626390	    -12.69788022
